# xmcd CD database file
#
# Track frame offsets:
#	150
#	5684
#	11609
#	18441
#	25229
#	31233
#	37237
#	42477
#	47717
#	51954
#	57903
#	64840
#	73336
#	79299
#	85224
#	91170
#	96420
#	101603
#	106239
#	110875
#	116093
#	121277
#	126496
#	131715
#	134326
#	139542
#	144758
#	149975
#	155111
#	159748
#	164385
#	169635
#	174885
#	179592
#	184299
#	189550
#	194801
#	199423
#	204045
#	207646
#	213431
#
# Disc length: 2984 seconds
#
# Revision: 0
# Processed by: cddbd v1.5.2PL0 Copyright (c) Steve Scherf et al.
# Submitted via: CDex 1.70beta2
#
DISCID=7d0ba629
DTITLE=SalsaIsGood.com - Salsa on the Beat
DYEAR=2004
DGENRE=Salsa
TTITLE0=Introduction
TTITLE1=Conga, Vocal instructions
TTITLE2=Conga, slow, with counting
TTITLE3=Conga, slow
TTITLE4=Conga, medium, with counting
TTITLE5=Conga, medium
TTITLE6=Conga, fast, with counting
TTITLE7=Conga, fast
TTITLE8=Conga with only accented notes, Vocal instructions
TTITLE9=Conga with only accented notes, with counting
TTITLE10=Conga with only accented notes
TTITLE11=Clave (2 - 3), , Vocal instructions
TTITLE12=Clave (2 - 3), slow, with counting
TTITLE13=Clave (2 - 3), slow
TTITLE14=Clave (3 - 2), slow, with counting
TTITLE15=Clave (2 - 3), medium, with counting
TTITLE16=Clave (2 - 3), medium
TTITLE17=Clave (2 - 3), fast, with counting
TTITLE18=Clave (2 - 3), fast
TTITLE19=Guiro and cowbell, medium, with counting
TTITLE20=Guiro and cowbell, medium
TTITLE21=Piano, medium, with counting
TTITLE22=Piano, medium
TTITLE23=Bass, Vocal instructions
TTITLE24=Bass, medium, with counting
TTITLE25=Bass, medium
TTITLE26=Conga and Clave, medium, with counting
TTITLE27=Conga and Clave, medium
TTITLE28=Conga and Clave, fast, with counting
TTITLE29=Conga and Clave, fast
TTITLE30=Full percussion section, medium, with counting
TTITLE31=Full percussion section, medium
TTITLE32=Full percussion section, fast, with counting
TTITLE33=Full percussion section, fast
TTITLE34=Full band, medium, with counting
TTITLE35=Full band, medium
TTITLE36=Full band, fast, with counting
TTITLE37=Full band, fast
TTITLE38=Salsa exam, Vocal instructions
TTITLE39=Salsa exam
TTITLE40=And Finally...
EXTD=YEAR: 2004
EXTT0=
EXTT1=
EXTT2=
EXTT3=
EXTT4=
EXTT5=
EXTT6=
EXTT7=
EXTT8=
EXTT9=
EXTT10=
EXTT11=
EXTT12=
EXTT13=
EXTT14=
EXTT15=
EXTT16=
EXTT17=
EXTT18=
EXTT19=
EXTT20=
EXTT21=
EXTT22=
EXTT23=
EXTT24=
EXTT25=
EXTT26=
EXTT27=
EXTT28=
EXTT29=
EXTT30=
EXTT31=
EXTT32=
EXTT33=
EXTT34=
EXTT35=
EXTT36=
EXTT37=
EXTT38=
EXTT39=
EXTT40=
PLAYORDER=
